# xmcd CD database file
#
# Track frame offsets:
#	150
#	20061
#	33811
#	44364
#	63107
#	83849
#	95174
#	117482
#	129030
#	148045
#	160008
#
# Disc length: 2332 seconds
#
# Revision: 0
# Processed by: cddbd v1.5.2PL0 Copyright (c) Steve Scherf et al.
# Submitted via: CDex 1.51
#
DISCID=8a091a0b
DTITLE=Elaine Lucia - Sings Jazz and Other Things
DYEAR=2001
DGENRE=Jazz
TTITLE0=Detour Ahead
TTITLE1=Love Is a Word for the Blues
TTITLE2=Agua de Beber
TTITLE3=Old Devil Moon
TTITLE4=Key Largo
TTITLE5=Don'cha Go Away Mad
TTITLE6=It Might as Well Be Spring
TTITLE7=I'm Gonna Go Fishin'
TTITLE8=All I Want
TTITLE9=Never Will I Marry
TTITLE10=Small Day Tomorrow
EXTD=YEAR: 2001
EXTT0=
EXTT1=
EXTT2=
EXTT3=
EXTT4=
EXTT5=
EXTT6=
EXTT7=
EXTT8=
EXTT9=
EXTT10=
PLAYORDER=
